<svg width="41" height="49" viewBox="0 0 41 49" fill="none" xmlns="http://www.w3.org/2000/svg">
<path d="M24.4236 0.391357C21.672 0.391357 18.7675 0.391357 16.0159 0.391357C15.5573 0.391357 15.2516 0.391357 14.793 0.391357C13.5701 0.391357 12.5 1.45657 12.5 2.67397C12.5 3.89136 13.5701 4.95657 14.793 4.95657H17.3917V10.1305H21.9777V4.8044H23.2006H24.4236C25.6465 4.8044 26.7166 3.73918 26.7166 2.52179C26.7166 1.45657 25.7994 0.391357 24.4236 0.391357Z" fill="#777777"/>
<path d="M20.5 48.6089C31.5457 48.6089 40.5 39.6546 40.5 28.6089C40.5 17.5632 31.5457 8.60889 20.5 8.60889C9.4543 8.60889 0.5 17.5632 0.5 28.6089C0.5 39.6546 9.4543 48.6089 20.5 48.6089Z" fill="#AAAAAA"/>
<path d="M20.5 16.3914C19.4333 16.3914 18.5 17.2398 18.5 18.2095V28.9974V30.5732C18.5 31.5429 19.4333 32.3914 20.5 32.3914C21.5667 32.3914 22.5 31.5429 22.5 30.5732C22.5 26.9368 22.5 23.4217 22.5 19.7853C22.5 19.3004 22.5 18.8156 22.5 18.2095C22.5 17.2398 21.5667 16.3914 20.5 16.3914Z" fill="white"/>
</svg>
