<svg width="72" height="72" viewBox="0 0 72 72" fill="none" xmlns="http://www.w3.org/2000/svg">
<circle cx="36" cy="36" r="36" fill="url(#paint0_linear_146_848)"/>
<path d="M51.5714 29.0448L51.5714 29.0448L51.576 29.0398C52.4778 28.0583 52.4785 26.5197 51.5547 25.5373C50.5965 24.5184 49.0072 24.4838 48.0072 25.4607L30.9625 42.1107L25.0482 35.9974L25.0483 35.9974L25.044 35.9932L24.955 35.9055L24.9551 35.9054L24.9501 35.9008C23.9743 34.9897 22.457 35.0062 21.5007 35.9611C20.514 36.9464 20.4979 38.5583 21.4645 39.5638L21.4649 39.5643L29.1161 47.4833L29.1161 47.4834L29.1204 47.4876L29.2087 47.5748L29.2087 47.5748L29.2136 47.5794C30.1816 48.4839 31.6849 48.4762 32.644 47.5393L51.4795 29.1393L51.4796 29.1394L51.4843 29.1345L51.5714 29.0448Z" fill="white" stroke="white" stroke-width="0.5"/>
<defs>
<linearGradient id="paint0_linear_146_848" x1="36" y1="72" x2="36" y2="0" gradientUnits="userSpaceOnUse">
<stop stop-color="#EE2D20"/>
<stop offset="1" stop-color="#FF5145"/>
</linearGradient>
</defs>
</svg>
