<svg width="72" height="72" viewBox="0 0 72 72" fill="none" xmlns="http://www.w3.org/2000/svg">
<path d="M36 70.875C55.2609 70.875 70.875 55.2609 70.875 36C70.875 16.7391 55.2609 1.125 36 1.125C16.7391 1.125 1.125 16.7391 1.125 36C1.125 55.2609 16.7391 70.875 36 70.875Z" fill="#F8F9FD"/>
<path d="M63.9866 56.7842C60.734 52.4296 56.5106 48.8936 51.652 46.4574C46.7933 44.0211 41.4334 42.7517 35.9982 42.75C30.5629 42.7483 25.2022 44.0144 20.342 46.4476C15.4818 48.8808 11.2562 52.4141 8.00089 56.7666C11.2396 61.1412 15.4584 64.6961 20.3189 67.1462C25.1793 69.5962 30.5463 70.8733 35.9893 70.875C41.4324 70.8767 46.8001 69.603 51.6621 67.156C56.5241 64.709 60.7451 61.1568 63.9866 56.7842Z" fill="#DDDDDD"/>
<path d="M36 38.25C43.4558 38.25 49.5 32.2058 49.5 24.75C49.5 17.2942 43.4558 11.25 36 11.25C28.5442 11.25 22.5 17.2942 22.5 24.75C22.5 32.2058 28.5442 38.25 36 38.25Z" fill="#DDDDDD"/>
</svg>
